<?xml version="1.0" encoding="utf-8"?>
<!-- Generator: Adobe Illustrator 25.1.0, SVG Export Plug-In . SVG Version: 6.00 Build 0)  -->
<svg version="1.1" id="Слой_1" xmlns="http://www.w3.org/2000/svg" xmlns:xlink="http://www.w3.org/1999/xlink" x="0px" y="0px"
	 viewBox="0 0 1211 656" style="enable-background:new 0 0 1211 656;" xml:space="preserve">
<style type="text/css">
	.st0{fill:#51A5E5;}
	.st1{opacity:0.5;fill:#51A5E5;}
	.st2{opacity:0.3;fill:#51A5E5;}
</style>
<g>
	<g>
		<g>
			<path class="st0" d="M680.56,226.05c0.09,0,0.18-0.01,0.27-0.02c5.69-0.72,11.48-1.33,17.22-1.81c0.96-0.08,1.66-0.79,1.56-1.58
				c-0.1-0.79-0.96-1.37-1.92-1.29c-5.8,0.49-11.65,1.1-17.4,1.83c-0.96,0.12-1.61,0.86-1.46,1.64
				C678.96,225.54,679.71,226.05,680.56,226.05z"/>
			<path class="st0" d="M581.13,251.82c0.26,0,0.52-0.05,0.77-0.15c5.16-2.09,10.46-4.11,15.73-5.98c0.89-0.32,1.3-1.16,0.91-1.89
				c-0.38-0.73-1.41-1.07-2.3-0.75c-5.33,1.89-10.68,3.93-15.9,6.04c-0.87,0.35-1.22,1.22-0.8,1.93
				C579.87,251.53,580.49,251.82,581.13,251.82z"/>
			<path class="st0" d="M646.39,231.84c0.15,0,0.29-0.01,0.44-0.05c5.58-1.19,11.26-2.28,16.91-3.24c0.95-0.16,1.56-0.92,1.36-1.7
				c-0.19-0.78-1.12-1.28-2.07-1.12c-5.7,0.97-11.45,2.07-17.08,3.27c-0.94,0.2-1.5,0.99-1.25,1.76
				C644.9,231.41,645.61,231.84,646.39,231.84z"/>
			<path class="st0" d="M613.11,240.47c0.2,0,0.41-0.03,0.61-0.09c5.4-1.65,10.93-3.22,16.42-4.64c0.92-0.24,1.43-1.05,1.14-1.81
				c-0.29-0.76-1.27-1.18-2.2-0.94c-5.55,1.44-11.13,3.02-16.59,4.69c-0.91,0.28-1.37,1.11-1.03,1.85
				C611.73,240.11,612.4,240.47,613.11,240.47z"/>
			<path class="st0" d="M784.62,225.91c5.7,0.71,11.45,1.54,17.1,2.48c0.12,0.02,0.23,0.03,0.35,0.03c0.82,0,1.55-0.47,1.71-1.16
				c0.19-0.78-0.42-1.54-1.37-1.7c-5.7-0.95-11.52-1.8-17.27-2.51c-0.97-0.12-1.85,0.42-1.99,1.21
				C783.01,225.05,783.67,225.79,784.62,225.91z"/>
			<path class="st0" d="M750.08,223.09c5.77,0.23,11.59,0.58,17.32,1.05c0.06,0,0.12,0.01,0.17,0.01c0.89,0,1.65-0.56,1.74-1.3
				c0.09-0.79-0.61-1.5-1.57-1.58c-5.78-0.47-11.67-0.83-17.49-1.06c-0.96-0.04-1.79,0.57-1.83,1.37
				C748.37,222.38,749.11,223.05,750.08,223.09z"/>
			<path class="st0" d="M506.38,293.17c-0.54-0.86-0.92-1.82-1.11-2.8c-3.66,2.64-7.29,5.36-10.8,8.11
				c-0.7,0.55-0.73,1.46-0.06,2.04c0.34,0.3,0.81,0.45,1.27,0.45c0.43,0,0.87-0.13,1.21-0.4c3.13-2.46,6.35-4.89,9.61-7.26
				C506.46,293.27,506.42,293.22,506.38,293.17z"/>
			<path class="st0" d="M449.27,344.28c0.3,0.17,0.65,0.26,1,0.26c0.55,0,1.1-0.22,1.44-0.62c3.29-3.89,6.75-7.77,10.29-11.53
				c0.59-0.63,0.45-1.54-0.31-2.02c-0.76-0.49-1.86-0.37-2.46,0.26c-3.57,3.8-7.06,7.72-10.39,11.65
				C448.29,342.93,448.48,343.83,449.27,344.28z"/>
			<path class="st0" d="M818.65,231.59c5.58,1.18,11.2,2.49,16.7,3.9c0.17,0.04,0.35,0.07,0.52,0.07c0.75,0,1.44-0.4,1.67-1.01
				c0.29-0.76-0.23-1.57-1.15-1.81c-5.56-1.43-11.24-2.75-16.88-3.94c-0.93-0.2-1.89,0.27-2.13,1.04
				C817.15,230.6,817.71,231.39,818.65,231.59z"/>
			<path class="st0" d="M471.64,321.81c0.49,0,0.98-0.17,1.33-0.5c3.75-3.6,7.67-7.17,11.64-10.62c0.67-0.58,0.64-1.49-0.06-2.04
				c-0.7-0.55-1.81-0.52-2.48,0.05c-4.01,3.48-7.97,7.09-11.76,10.72c-0.63,0.6-0.54,1.51,0.19,2.03
				C470.83,321.69,471.24,321.81,471.64,321.81z"/>
			<path class="st0" d="M550.7,265.79c0.32,0,0.64-0.07,0.93-0.22c4.88-2.51,9.9-4.96,14.93-7.27c0.84-0.39,1.15-1.27,0.68-1.96
				c-0.47-0.7-1.54-0.95-2.38-0.56c-5.08,2.33-10.15,4.8-15.08,7.34c-0.82,0.42-1.07,1.31-0.56,1.99
				C549.54,265.55,550.12,265.79,550.7,265.79z"/>
			<path class="st0" d="M715.27,223.13c0.03,0,0.06,0,0.09,0c5.74-0.24,11.58-0.37,17.36-0.38c0.97,0,1.75-0.65,1.75-1.44
				c0-0.8-0.78-1.44-1.75-1.44c0,0,0,0,0,0c-5.83,0.01-11.73,0.13-17.54,0.38c-0.97,0.04-1.71,0.72-1.66,1.51
				C713.57,222.54,714.34,223.13,715.27,223.13z"/>
			<path class="st0" d="M914.2,265.25c4.89,2.51,9.78,5.16,14.51,7.87c0.31,0.17,0.65,0.26,1,0.26c0.55,0,1.1-0.22,1.44-0.62
				c0.55-0.65,0.36-1.55-0.44-2.01c-4.79-2.74-9.72-5.42-14.66-7.95c-0.82-0.42-1.9-0.21-2.41,0.46
				C913.13,263.94,913.38,264.83,914.2,265.25z"/>
			<path class="st0" d="M851.83,240.1c5.41,1.64,10.85,3.43,16.16,5.3c0.22,0.08,0.46,0.12,0.69,0.12c0.68,0,1.33-0.33,1.61-0.87
				c0.38-0.73-0.03-1.58-0.92-1.89c-5.37-1.89-10.86-3.69-16.33-5.35c-0.9-0.27-1.91,0.11-2.25,0.85
				C850.46,239,850.92,239.83,851.83,240.1z"/>
			<path class="st0" d="M942.72,281.58c4.56,2.9,9.09,5.94,13.47,9.03c0.33,0.23,0.73,0.35,1.14,0.35c0.49,0,0.98-0.17,1.33-0.5
				c0.63-0.6,0.54-1.51-0.19-2.03c-4.42-3.12-9-6.19-13.61-9.12c-0.76-0.49-1.86-0.37-2.46,0.26
				C941.82,280.19,941.96,281.1,942.72,281.58z"/>
			<path class="st0" d="M883.8,251.37c5.18,2.09,10.37,4.32,15.42,6.62c0.27,0.12,0.56,0.18,0.85,0.18c0.62,0,1.21-0.27,1.53-0.74
				c0.47-0.7,0.16-1.57-0.68-1.96c-5.1-2.33-10.34-4.58-15.57-6.69c-0.87-0.35-1.92-0.05-2.34,0.66
				C882.57,250.16,882.93,251.02,883.8,251.37z"/>
			<path class="st0" d="M981.39,310.29c0.34,0.3,0.8,0.45,1.27,0.45c0.43,0,0.87-0.13,1.21-0.4c0.7-0.55,0.73-1.46,0.06-2.04
				c-4.01-3.47-8.19-6.9-12.42-10.2c-0.7-0.55-1.81-0.52-2.48,0.05c-0.66,0.58-0.64,1.49,0.07,2.04
				C973.27,303.46,977.41,306.86,981.39,310.29z"/>
			<path class="st0" d="M1023.92,355.35c0.33,0.44,0.9,0.68,1.48,0.68c0.32,0,0.64-0.07,0.93-0.22c0.82-0.42,1.07-1.31,0.55-1.99
				c-3.09-4.06-6.34-8.11-9.68-12.03c-0.55-0.65-1.65-0.81-2.44-0.36c-0.79,0.46-0.98,1.36-0.43,2.01
				C1017.64,347.33,1020.86,351.33,1023.92,355.35z"/>
			<path class="st0" d="M1004.04,331.94c0.34,0.37,0.86,0.56,1.38,0.56c0.38,0,0.75-0.1,1.07-0.3c0.76-0.49,0.9-1.39,0.31-2.02
				c-3.57-3.78-7.31-7.54-11.11-11.17c-0.63-0.6-1.73-0.67-2.47-0.15c-0.73,0.52-0.81,1.43-0.18,2.03
				C996.8,324.48,1000.5,328.2,1004.04,331.94z"/>
		</g>
		<g>
			<g>
				<path class="st0" d="M515.29,267.41c-0.12,0-0.22-0.02-0.34-0.06l-2.37-0.7c-0.29-0.08-0.54-0.29-0.7-0.56
					c-0.15-0.29-0.19-0.6-0.08-0.91l7.53-25.37c0.16-0.5,0.62-0.86,1.15-0.86c0.11,0,0.22,0.02,0.33,0.05l2.37,0.72
					c0.3,0.09,0.56,0.3,0.72,0.57c0.14,0.28,0.18,0.6,0.09,0.89l-7.54,25.37C516.27,267.06,515.81,267.41,515.29,267.41z"/>
				<g>
					<path class="st0" d="M520.74,239.19c-0.51-0.15-1.06,0.16-1.23,0.67l-7.52,25.38c-0.16,0.53,0.14,1.08,0.65,1.23l1.15,0.34
						l8.15-27.26L520.74,239.19z"/>
				</g>
				<path class="st0" d="M523.11,239.89l-1.18-0.34l-8.15,27.26l1.23,0.36c0.52,0.15,1.07-0.13,1.22-0.67l7.55-25.37
					C523.93,240.61,523.64,240.06,523.11,239.89z"/>
			</g>
			<g>
				<path class="st0" d="M536.96,267.41c0.12,0,0.24-0.02,0.34-0.06l2.37-0.7c0.3-0.08,0.56-0.29,0.72-0.56
					c0.13-0.29,0.16-0.6,0.08-0.91l-7.54-25.37c-0.14-0.5-0.62-0.86-1.13-0.86c-0.11,0-0.22,0.02-0.34,0.05l-2.37,0.72
					c-0.29,0.09-0.55,0.3-0.7,0.57c-0.15,0.28-0.18,0.6-0.08,0.89l7.52,25.37C535.99,267.06,536.45,267.41,536.96,267.41z"/>
				<g>
					<path class="st0" d="M531.52,239.19c0.52-0.15,1.07,0.16,1.22,0.67l7.55,25.38c0.15,0.53-0.14,1.08-0.67,1.23l-1.13,0.34
						l-8.15-27.26L531.52,239.19z"/>
				</g>
				<path class="st0" d="M529.14,239.89l1.2-0.34l8.15,27.26l-1.24,0.36c-0.52,0.15-1.07-0.13-1.23-0.67l-7.53-25.37
					C528.34,240.61,528.63,240.06,529.14,239.89z"/>
			</g>
			<g>
				<g>
					<path class="st0" d="M496.26,265.44l6.83,31.1h46.51l7.12-31.1H496.26z M543.48,270.75h1.58c0.55,0,1,0.5,1,1.08v6.92h-3.56
						v-6.92C542.49,271.25,542.93,270.75,543.48,270.75z M536.36,270.75h1.58c0.55,0,1,0.5,1,1.08v6.92h-3.55v-6.92
						C535.38,271.25,535.81,270.75,536.36,270.75z M529.25,270.75h1.58c0.55,0,1,0.5,1,1.08v6.92h-3.55v-6.92
						C528.27,271.25,528.7,270.75,529.25,270.75z M522.13,270.75h1.59c0.53,0,0.98,0.5,0.98,1.08v6.92h-3.55v-6.92
						C521.16,271.25,521.6,270.75,522.13,270.75z M515.03,270.75h1.58c0.55,0,0.99,0.5,0.99,1.08v6.92h-3.56v-6.92
						C514.04,271.25,514.48,270.75,515.03,270.75z M507.92,270.75h1.57c0.55,0,0.98,0.5,0.98,1.08v6.92h-3.55v-6.92
						C506.92,271.25,507.37,270.75,507.92,270.75z M509.49,293.88h-1.57c-0.55,0-1-0.48-1-1.08v-10.47h3.55v10.47
						C510.48,293.4,510.04,293.88,509.49,293.88z M516.61,293.88h-1.58c-0.55,0-0.99-0.48-0.99-1.08v-10.47h3.56v10.47
						C517.6,293.4,517.16,293.88,516.61,293.88z M523.72,293.88h-1.59c-0.53,0-0.98-0.48-0.98-1.08v-10.47h3.55v10.47
						C524.71,293.4,524.26,293.88,523.72,293.88z M530.82,293.88h-1.58c-0.55,0-0.98-0.48-0.98-1.08v-10.47h3.55v10.47
						C531.82,293.4,531.37,293.88,530.82,293.88z M537.94,293.88h-1.58c-0.55,0-0.98-0.48-0.98-1.08v-10.47h3.55v10.47
						C538.93,293.4,538.49,293.88,537.94,293.88z M545.06,293.88h-1.58c-0.55,0-0.99-0.48-0.99-1.08v-10.47h3.56v10.47
						C546.05,293.4,545.6,293.88,545.06,293.88z"/>
				</g>
			</g>
			<g>
				<path class="st0" d="M493.69,268.61c-0.82,0-1.51-0.67-1.51-1.51v-4.23c0-0.84,0.69-1.51,1.51-1.51h64.71
					c0.82,0,1.51,0.67,1.51,1.51v4.23c0,0.84-0.69,1.51-1.51,1.51H493.69z"/>
			</g>
			<g>
				<path class="st0" d="M559.36,267.1c0,0.55-0.44,0.99-0.97,0.99h-64.71c-0.55,0-0.98-0.44-0.98-0.99v-4.23
					c0-0.55,0.43-0.99,0.98-0.99h64.71c0.53,0,0.97,0.44,0.97,0.99V267.1z"/>
			</g>
			<g>
				<g>
					<g>
						<path class="st0" d="M509.49,293.02h-1.57c-0.55,0-1-0.46-1-1.03v0.78c0,0.61,0.45,1.11,1,1.11h1.57
							c0.55,0,0.98-0.5,0.98-1.11v-0.78C510.48,292.56,510.04,293.02,509.49,293.02z"/>
					</g>
					<g>
						<path class="st0" d="M509.49,269.88h-1.57c-0.55,0-1,0.5-1,1.11v0.77c0-0.57,0.45-1.03,1-1.03h1.57
							c0.55,0,0.98,0.46,0.98,1.03v-0.77C510.48,270.37,510.04,269.88,509.49,269.88z"/>
					</g>
				</g>
			</g>
			<g>
				<g>
					<g>
						<path class="st0" d="M516.61,293.02h-1.58c-0.55,0-0.99-0.46-0.99-1.03v0.78c0,0.61,0.44,1.11,0.99,1.11h1.58
							c0.55,0,0.99-0.5,0.99-1.11v-0.78C517.6,292.56,517.16,293.02,516.61,293.02z"/>
					</g>
					<g>
						<path class="st0" d="M516.61,269.88h-1.58c-0.55,0-0.99,0.5-0.99,1.11v0.77c0-0.57,0.44-1.03,0.99-1.03h1.58
							c0.55,0,0.99,0.46,0.99,1.03v-0.77C517.6,270.37,517.16,269.88,516.61,269.88z"/>
					</g>
				</g>
			</g>
			<g>
				<g>
					<g>
						<path class="st0" d="M523.72,293.02h-1.59c-0.53,0-0.98-0.46-0.98-1.03v0.78c0,0.61,0.45,1.11,0.98,1.11h1.59
							c0.53,0,0.98-0.5,0.98-1.11v-0.78C524.71,292.56,524.26,293.02,523.72,293.02z"/>
					</g>
					<g>
						<path class="st0" d="M523.72,269.88h-1.59c-0.53,0-0.98,0.5-0.98,1.11v0.77c0-0.57,0.45-1.03,0.98-1.03h1.59
							c0.53,0,0.98,0.46,0.98,1.03v-0.77C524.71,270.37,524.26,269.88,523.72,269.88z"/>
					</g>
				</g>
			</g>
			<g>
				<g>
					<g>
						<path class="st0" d="M530.82,293.02h-1.58c-0.55,0-0.98-0.46-0.98-1.03v0.78c0,0.61,0.43,1.11,0.98,1.11h1.58
							c0.55,0,1-0.5,1-1.11v-0.78C531.82,292.56,531.37,293.02,530.82,293.02z"/>
					</g>
					<g>
						<path class="st0" d="M530.82,269.88h-1.58c-0.55,0-0.98,0.5-0.98,1.11v0.77c0-0.57,0.43-1.03,0.98-1.03h1.58
							c0.55,0,1,0.46,1,1.03v-0.77C531.82,270.37,531.37,269.88,530.82,269.88z"/>
					</g>
				</g>
			</g>
			<g>
				<g>
					<g>
						<path class="st0" d="M537.94,293.02h-1.58c-0.55,0-0.98-0.46-0.98-1.03v0.78c0,0.61,0.43,1.11,0.98,1.11h1.58
							c0.55,0,1-0.5,1-1.11v-0.78C538.93,292.56,538.49,293.02,537.94,293.02z"/>
					</g>
					<g>
						<path class="st0" d="M537.94,269.88h-1.58c-0.55,0-0.98,0.5-0.98,1.11v0.77c0-0.57,0.43-1.03,0.98-1.03h1.58
							c0.55,0,1,0.46,1,1.03v-0.77C538.93,270.37,538.49,269.88,537.94,269.88z"/>
					</g>
				</g>
			</g>
			<g>
				<g>
					<g>
						<path class="st0" d="M545.06,293.02h-1.58c-0.55,0-0.99-0.46-0.99-1.03v0.78c0,0.61,0.44,1.11,0.99,1.11h1.58
							c0.55,0,1-0.5,1-1.11v-0.78C546.05,292.56,545.6,293.02,545.06,293.02z"/>
					</g>
					<g>
						<path class="st0" d="M545.06,269.88h-1.58c-0.55,0-0.99,0.5-0.99,1.11v0.77c0-0.57,0.44-1.03,0.99-1.03h1.58
							c0.55,0,1,0.46,1,1.03v-0.77C546.05,270.37,545.6,269.88,545.06,269.88z"/>
					</g>
				</g>
			</g>
		</g>
		<g>
			<path class="st0" d="M703.64,230.54c0-0.91-0.74-1.65-1.65-1.65c-0.91,0-1.65,0.74-1.65,1.65c0,0.91,0.74,1.65,1.65,1.65
				C702.9,232.18,703.64,231.45,703.64,230.54z"/>
			<g>
				<path class="st0" d="M745.01,227.27c0,1.15-0.94,2.09-2.09,2.09H709.4c-1.15,0-2.09-0.94-2.09-2.09v-25.03
					c0-1.15,0.94-2.09,2.09-2.09h33.51c1.15,0,2.09,0.94,2.09,2.09V227.27z"/>
			</g>
			<g>
				<rect x="701.57" y="226.43" class="st0" width="51.64" height="7.38"/>
			</g>
			<g>
				<rect x="746.9" y="190" class="st0" width="3.25" height="43.06"/>
			</g>
			<g>
				<rect x="701.78" y="213.83" class="st0" width="3.25" height="19.23"/>
			</g>
			<path class="st0" d="M781.49,230.54c0-0.91-0.74-1.65-1.65-1.65c-0.91,0-1.65,0.74-1.65,1.65c0,0.91,0.74,1.65,1.65,1.65
				C780.75,232.18,781.49,231.45,781.49,230.54z"/>
			<path class="st0" d="M757.86,194.46c1.5,0,3.96,0,5.46,0h4.37c1.5,0,3.28,1.1,3.95,2.44l7.39,14.79
				c0.67,1.34,1.22,3.67,1.22,5.18v14.21c0,1.5-1.23,2.73-2.73,2.73h-24.04c-1.5,0-2.73-1.23-2.73-2.73v-33.88
				c0-1.5,1.23-2.73,2.73-2.73H757.86z"/>
			<path class="st0" d="M755.67,201.05c0-1.5,1.23-2.73,2.73-2.73h5.68c1.5,0,3.32,1.08,4.03,2.41l7.16,13.3
				c0.71,1.32,0.07,2.41-1.44,2.41H758.4c-1.5,0-2.73-1.23-2.73-2.73V201.05z"/>
			<path class="st0" d="M701.57,235.04c0-0.68,0.61-1.23,1.37-1.23h75.96c0.75,0,1.37,0.55,1.37,1.23c0,0.68-0.61,1.23-1.37,1.23
				h-75.96C702.18,236.27,701.57,235.71,701.57,235.04z"/>
			<g>
				<path class="st0" d="M752.57,236.27h17.57c-1.81-2.95-5.07-4.92-8.79-4.92C757.63,231.35,754.38,233.32,752.57,236.27z"/>
			</g>
			<g>
				<path class="st0" d="M752.28,241.65c0,5.01,4.06,9.07,9.07,9.07s9.08-4.06,9.08-9.07s-4.06-9.07-9.08-9.07
					S752.28,236.64,752.28,241.65z"/>
				<g>
					<path class="st0" d="M756.17,241.65c0,2.86,2.32,5.19,5.18,5.19c2.86,0,5.19-2.32,5.19-5.19c0-2.86-2.32-5.19-5.19-5.19
						C758.49,236.47,756.17,238.79,756.17,241.65z"/>
				</g>
			</g>
			<g>
				<path class="st0" d="M715.56,231.35c-3.72,0-6.97,1.97-8.78,4.92h17.57C722.53,233.32,719.28,231.35,715.56,231.35z"/>
			</g>
			<g>
				
					<ellipse transform="matrix(0.8454 -0.5341 0.5341 0.8454 -18.4632 419.507)" class="st0" cx="715.56" cy="241.65" rx="9.07" ry="9.07"/>
				<g>
					<path class="st0" d="M710.38,241.65c0,2.86,2.32,5.19,5.19,5.19c2.86,0,5.19-2.32,5.19-5.19c0-2.86-2.32-5.19-5.19-5.19
						C712.7,236.47,710.38,238.79,710.38,241.65z"/>
				</g>
				<path class="st0" d="M713.71,241.65c0,1.02,0.83,1.85,1.85,1.85c1.02,0,1.85-0.83,1.85-1.85c0-1.02-0.83-1.85-1.85-1.85
					C714.54,239.8,713.71,240.63,713.71,241.65z"/>
				<path class="st0" d="M759.47,241.65c0,1.02,0.83,1.85,1.85,1.85c1.02,0,1.85-0.83,1.85-1.85c0-1.02-0.83-1.85-1.85-1.85
					C760.3,239.8,759.47,240.63,759.47,241.65z"/>
			</g>
			<path class="st1" d="M775.28,214.02l-7.16-13.3c-0.71-1.32-2.52-2.41-4.03-2.41h-2.32l6.9,18.12h5.18
				C775.34,216.43,775.99,215.35,775.28,214.02z"/>
			<path class="st2" d="M738.35,210.41c0,0.79-0.64,1.43-1.43,1.43h-16.52c-0.79,0-1.43-0.64-1.43-1.43l0,0
				c0-0.79,0.64-1.43,1.43-1.43h16.52C737.71,208.98,738.35,209.62,738.35,210.41L738.35,210.41z"/>
			<path class="st2" d="M738.35,218.99c0,0.79-0.64,1.43-1.43,1.43h-16.52c-0.79,0-1.43-0.64-1.43-1.43l0,0
				c0-0.79,0.64-1.43,1.43-1.43h16.52C737.71,217.56,738.35,218.2,738.35,218.99L738.35,218.99z"/>
		</g>
		<g>
			<g>
				<polygon class="st0" points="924.66,259.9 923.04,303.89 966.91,303.89 965.29,259.9 				"/>
			</g>
			<g>
				<path class="st0" d="M938.25,263.75c0,0.3-0.27,0.55-0.61,0.55c-0.34,0-0.61-0.25-0.61-0.55c0-0.3,0.27-0.55,0.61-0.55
					C937.98,263.2,938.25,263.45,938.25,263.75z"/>
				<path class="st0" d="M952.92,263.75c0,0.3-0.27,0.55-0.61,0.55s-0.61-0.25-0.61-0.55c0-0.3,0.27-0.55,0.61-0.55
					S952.92,263.45,952.92,263.75z"/>
				<g>
					<g>
						<path class="st0" d="M946.21,248.39h-2.44c-3.62,0-6.57,2.66-6.57,5.92v9.06v0.76c0.11,0.11,0.27,0.17,0.44,0.17
							c0.19,0,0.36-0.08,0.47-0.21v-0.69v-9.1c0-2.81,2.54-5.1,5.65-5.1h2.44c3.12,0,5.65,2.29,5.65,5.1v9.06v0.76
							c0.11,0.11,0.27,0.17,0.44,0.17c0.19,0,0.36-0.08,0.47-0.21v-0.69v-9.1C952.78,251.05,949.83,248.39,946.21,248.39z"/>
					</g>
				</g>
			</g>
		</g>
	</g>
</g>
<g>
	<g>
		<g>
			<path class="st0" d="M740.96,371.9c-19,0-34.46,15.46-34.46,34.46s15.46,34.46,34.46,34.46c19,0,34.46-15.46,34.46-34.46
				S759.97,371.9,740.96,371.9z M740.96,423.98c-9.71,0-17.62-7.9-17.62-17.62c0-9.71,7.9-17.62,17.62-17.62
				c9.71,0,17.62,7.9,17.62,17.62C758.58,416.08,750.68,423.98,740.96,423.98z"/>
			<path class="st0" d="M1020.37,400.03c-2.22,0-4.03-1.81-4.03-4.03c0-2.22,1.81-4.03,4.03-4.03c1.04,0,1.82,0.39,2.29,0.71
				c0.44,0.31,0.83,0.71,1.12,1.17l14.21-9.04c-1.51-2.37-3.45-4.39-5.75-5.98c-3.5-2.42-7.61-3.71-11.88-3.71
				c-11.51,0-20.88,9.37-20.88,20.88c0,11.51,9.37,20.88,20.88,20.88c2.83,0,5.14,2.31,5.14,5.14c0,2.84-2.31,5.14-5.14,5.14
				c-2.23,0-4.19-1.42-4.89-3.53l-16,5.26c2.97,9.04,11.36,15.12,20.89,15.12c12.12,0,21.99-9.86,21.99-21.99
				C1042.35,409.89,1032.49,400.03,1020.37,400.03z"/>
			<path class="st0" d="M478.8,372.9c-19,0-34.46,15.46-34.46,34.46s15.46,34.46,34.46,34.46v-16.85c-9.72,0-17.62-7.9-17.62-17.62
				s7.9-17.62,17.62-17.62c6.67,0,12.48,3.72,15.47,9.19H478.8v16.85h34.46v-8.42C513.26,388.36,497.8,372.9,478.8,372.9z"/>
			<path class="st0" d="M874.16,373.49c-6.44,0-12.45,1.81-17.62,4.9v-41.16H839.7v70.72v8.42v26.04h16.85v-26.04v-8.42
				c0-9.71,7.9-17.62,17.62-17.62c9.72,0,17.62,7.9,17.62,17.62v34.46h16.85v-34.46C908.63,388.95,893.17,373.49,874.16,373.49z"/>
			<path class="st0" d="M555.62,373.21h16.85v68.92h-16.85V373.21z M564.12,348.89c-4.65,0-8.42,3.77-8.42,8.42
				c0,4.65,3.77,8.42,8.42,8.42c4.65,0,8.42-3.77,8.42-8.42C572.54,352.66,568.77,348.89,564.12,348.89z"/>
			<rect x="525.37" y="331.39" class="st0" width="16.85" height="110.04"/>
			<path class="st0" d="M812.18,426.21c-2.88,0-5.21-2.34-5.21-5.22v-29.97h16.5v-16.85h-16.5v-22.62h-16.85v22.62h-8.66v16.85h8.66
				v29.97c0,12.17,9.89,22.06,22.06,22.06c4.42,0,8.68-1.3,12.34-3.77l-9.43-13.96C814.23,425.9,813.22,426.21,812.18,426.21z"/>
			<rect x="677.12" y="331" class="st0" width="16.85" height="110.04"/>
			<path class="st0" d="M955.8,374.17c-19,0-34.46,15.46-34.46,34.46s15.46,34.46,34.46,34.46v-16.85c-9.72,0-17.62-7.9-17.62-17.62
				s7.9-17.62,17.62-17.62c6.67,0,12.48,3.72,15.47,9.19H955.8v16.85h34.46v-8.42C990.26,389.63,974.8,374.17,955.8,374.17z"/>
			<path class="st0" d="M640.48,425.67c-19.09,0-34.63-15.53-34.63-34.63c0-19.09,15.54-34.63,34.63-34.63
				c5.39,0,10.56,1.2,15.34,3.57l8.03-16.22c-7.31-3.62-15.17-5.45-23.37-5.45c-29.07,0-52.73,23.65-52.73,52.73
				c0,29.08,23.65,52.73,52.73,52.73c9.4,0,18.63-2.51,26.7-7.25l-9.18-15.6C652.71,424.03,646.65,425.67,640.48,425.67z"/>
		</g>
	</g>
	<path class="st0" d="M253.42,436.3c4.29,0,7.78,3.48,7.78,7.78c0,4.3-3.49,7.78-7.78,7.78c-4.31,0-7.79-3.49-7.79-7.78
		C245.63,439.78,249.11,436.3,253.42,436.3z M234.85,300.85c1.09,0,2.15,0.15,3.15,0.45c5.35-7.63,14.22-12.58,24.35-12.58h56.02
		c36.7,0,72.09,14.3,94.11,44.49c13.35,18.29,19.92,40.11,19.92,62.68v0.57c0,22.68-6.62,44.61-20,63
		c-22,30.23-57.27,44.74-94.03,44.74h-56.02c-1.33,0-2.63-0.09-3.91-0.25c0.09,0.59,0.15,1.19,0.15,1.8
		c0,6.14-4.98,11.13-11.13,11.13c-6.15,0-11.13-4.99-11.13-11.13c0-4.11,2.24-7.7,5.55-9.63l0,0l0.01-0.01
		c0.32-0.19,0.66-0.36,1.01-0.51c5.49-3.04,9.22-8.9,9.22-15.63c0-9.8-7.91-17.76-17.69-17.84c-0.57,0.05-1.16,0.07-1.78,0.07h-0.01
		l0,0c-12.62,0-22.86-10.23-22.86-22.86c0-12.63,10.24-22.86,22.86-22.86c0.25,0,0.48,0.01,0.73,0.02
		c9.51-0.38,17.12-8.22,17.12-17.83c0-9.86-7.99-17.85-17.85-17.85l0,0c-9.86,0-17.85-7.99-17.85-17.84
		c0-9.86,7.99-17.85,17.85-17.85l0,0c6.15,0,11.13-4.98,11.13-11.13c0-5.31-3.73-9.76-8.71-10.86l-0.21,0.01
		c-6.15,0-11.13-4.99-11.13-11.13C223.72,305.84,228.7,300.85,234.85,300.85L234.85,300.85z M256.46,355.88
		c4.3,0,7.78,3.49,7.78,7.78c0,4.3-3.48,7.78-7.78,7.78c-4.3,0-7.78-3.48-7.78-7.78C248.68,359.37,252.17,355.88,256.46,355.88z
		 M292.06,449.07h26.31c31.39,0,52.61-20.5,52.61-52.04v-0.57c0-31.46-21.12-52.61-52.61-52.61h-26.31V449.07L292.06,449.07z"/>
	<path class="st0" d="M189.73,372.55c12.62,0,22.86,10.23,22.86,22.86c0,12.63-10.24,22.86-22.86,22.86
		c-12.63,0-22.86-10.24-22.86-22.86C166.87,382.78,177.1,372.55,189.73,372.55z"/>
	<path class="st0" d="M199.15,457.77c9.86,0,17.85,7.99,17.85,17.85s-7.99,17.85-17.85,17.85c-9.86,0-17.84-7.99-17.84-17.85
		S189.29,457.77,199.15,457.77z"/>
	
		<ellipse transform="matrix(6.329011e-03 -1 1 6.329011e-03 -143.0879 520.0669)" class="st0" cx="190.14" cy="332.03" rx="11.13" ry="11.13"/>
	<path class="st0" d="M188.53,284c6.14,0,11.13,4.99,11.13,11.13c0,6.15-4.99,11.13-11.13,11.13c-6.15,0-11.13-4.98-11.13-11.13
		C177.4,288.99,182.38,284,188.53,284z"/>
	<path class="st0" d="M165.19,346.5c6.15,0,11.13,4.99,11.13,11.13c0,6.15-4.98,11.13-11.13,11.13c-6.15,0-11.13-4.98-11.13-11.13
		C154.06,351.48,159.04,346.5,165.19,346.5z"/>
	<path class="st0" d="M171.68,428.39c6.15,0,11.13,4.98,11.13,11.13c0,6.15-4.98,11.13-11.13,11.13c-6.14,0-11.13-4.99-11.13-11.13
		C160.55,433.38,165.54,428.39,171.68,428.39z"/>
</g>
</svg>
